<svg id="visual" viewBox="0 0 900 600" width="900" height="600" xmlns="http://www.w3.org/2000/svg" xmlns:xlink="http://www.w3.org/1999/xlink" version="1.1"><path d="M0 121L39 121L39 121L78 121L78 91L117 91L117 115L157 115L157 91L196 91L196 49L235 49L235 97L274 97L274 49L313 49L313 37L352 37L352 115L391 115L391 49L430 49L430 43L470 43L470 37L509 37L509 13L548 13L548 67L587 67L587 145L626 145L626 37L665 37L665 19L704 19L704 91L743 91L743 109L783 109L783 67L822 67L822 133L861 133L861 49L900 49L900 115L900 0L900 0L861 0L861 0L822 0L822 0L783 0L783 0L743 0L743 0L704 0L704 0L665 0L665 0L626 0L626 0L587 0L587 0L548 0L548 0L509 0L509 0L470 0L470 0L430 0L430 0L391 0L391 0L352 0L352 0L313 0L313 0L274 0L274 0L235 0L235 0L196 0L196 0L157 0L157 0L117 0L117 0L78 0L78 0L39 0L39 0L0 0Z" fill="#009473"></path><path d="M0 205L39 205L39 193L78 193L78 211L117 211L117 223L157 223L157 163L196 163L196 139L235 139L235 193L274 193L274 133L313 133L313 145L352 145L352 163L391 163L391 139L430 139L430 151L470 151L470 109L509 109L509 91L548 91L548 109L587 109L587 193L626 193L626 109L665 109L665 103L704 103L704 169L743 169L743 145L783 145L783 145L822 145L822 253L861 253L861 151L900 151L900 169L900 113L900 47L861 47L861 131L822 131L822 65L783 65L783 107L743 107L743 89L704 89L704 17L665 17L665 35L626 35L626 143L587 143L587 65L548 65L548 11L509 11L509 35L470 35L470 41L430 41L430 47L391 47L391 113L352 113L352 35L313 35L313 47L274 47L274 95L235 95L235 47L196 47L196 89L157 89L157 113L117 113L117 89L78 89L78 119L39 119L39 119L0 119Z" fill="#10bca4"></path><path d="M0 253L39 253L39 259L78 259L78 265L117 265L117 301L157 301L157 187L196 187L196 151L235 151L235 283L274 283L274 229L313 229L313 235L352 235L352 253L391 253L391 199L430 199L430 235L470 235L470 187L509 187L509 187L548 187L548 205L587 205L587 265L626 265L626 109L665 109L665 205L704 205L704 187L743 187L743 163L783 163L783 199L822 199L822 295L861 295L861 223L900 223L900 223L900 167L900 149L861 149L861 251L822 251L822 143L783 143L783 143L743 143L743 167L704 167L704 101L665 101L665 107L626 107L626 191L587 191L587 107L548 107L548 89L509 89L509 107L470 107L470 149L430 149L430 137L391 137L391 161L352 161L352 143L313 143L313 131L274 131L274 191L235 191L235 137L196 137L196 161L157 161L157 221L117 221L117 209L78 209L78 191L39 191L39 203L0 203Z" fill="#26e6da"></path><path d="M0 337L39 337L39 289L78 289L78 349L117 349L117 463L157 463L157 343L196 343L196 331L235 331L235 289L274 289L274 361L313 361L313 295L352 295L352 427L391 427L391 421L430 421L430 331L470 331L470 301L509 301L509 385L548 385L548 499L587 499L587 565L626 565L626 343L665 343L665 403L704 403L704 307L743 307L743 445L783 445L783 487L822 487L822 445L861 445L861 433L900 433L900 301L900 221L900 221L861 221L861 293L822 293L822 197L783 197L783 161L743 161L743 185L704 185L704 203L665 203L665 107L626 107L626 263L587 263L587 203L548 203L548 185L509 185L509 185L470 185L470 233L430 233L430 197L391 197L391 251L352 251L352 233L313 233L313 227L274 227L274 281L235 281L235 149L196 149L196 185L157 185L157 299L117 299L117 263L78 263L78 257L39 257L39 251L0 251Z" fill="#26e6da"></path><path d="M0 397L39 397L39 379L78 379L78 409L117 409L117 571L157 571L157 379L196 379L196 511L235 511L235 379L274 379L274 451L313 451L313 367L352 367L352 571L391 571L391 565L430 565L430 439L470 439L470 409L509 409L509 421L548 421L548 577L587 577L587 571L626 571L626 397L665 397L665 451L704 451L704 319L743 319L743 463L783 463L783 499L822 499L822 493L861 493L861 523L900 523L900 373L900 299L900 431L861 431L861 443L822 443L822 485L783 485L783 443L743 443L743 305L704 305L704 401L665 401L665 341L626 341L626 563L587 563L587 497L548 497L548 383L509 383L509 299L470 299L470 329L430 329L430 419L391 419L391 425L352 425L352 293L313 293L313 359L274 359L274 287L235 287L235 329L196 329L196 341L157 341L157 461L117 461L117 347L78 347L78 287L39 287L39 335L0 335Z" fill="#10bca4"></path><path d="M0 601L39 601L39 601L78 601L78 601L117 601L117 601L157 601L157 601L196 601L196 601L235 601L235 601L274 601L274 601L313 601L313 601L352 601L352 601L391 601L391 601L430 601L430 601L470 601L470 601L509 601L509 601L548 601L548 601L587 601L587 601L626 601L626 601L665 601L665 601L704 601L704 601L743 601L743 601L783 601L783 601L822 601L822 601L861 601L861 601L900 601L900 601L900 371L900 521L861 521L861 491L822 491L822 497L783 497L783 461L743 461L743 317L704 317L704 449L665 449L665 395L626 395L626 569L587 569L587 575L548 575L548 419L509 419L509 407L470 407L470 437L430 437L430 563L391 563L391 569L352 569L352 365L313 365L313 449L274 449L274 377L235 377L235 509L196 509L196 377L157 377L157 569L117 569L117 407L78 407L78 377L39 377L39 395L0 395Z" fill="#009473"></path></svg>