<svg id="visual" viewBox="0 0 900 600" width="900" height="600" xmlns="http://www.w3.org/2000/svg" xmlns:xlink="http://www.w3.org/1999/xlink" version="1.1"><path d="M0 241L82 241L82 145L164 145L164 85L245 85L245 157L327 157L327 97L409 97L409 271L491 271L491 169L573 169L573 103L655 103L655 91L736 91L736 241L818 241L818 151L900 151L900 187L900 0L900 0L818 0L818 0L736 0L736 0L655 0L655 0L573 0L573 0L491 0L491 0L409 0L409 0L327 0L327 0L245 0L245 0L164 0L164 0L82 0L82 0L0 0Z" fill="#8a0532"></path><path d="M0 313L82 313L82 169L164 169L164 157L245 157L245 217L327 217L327 121L409 121L409 319L491 319L491 181L573 181L573 163L655 163L655 109L736 109L736 283L818 283L818 223L900 223L900 217L900 185L900 149L818 149L818 239L736 239L736 89L655 89L655 101L573 101L573 167L491 167L491 269L409 269L409 95L327 95L327 155L245 155L245 83L164 83L164 143L82 143L82 239L0 239Z" fill="#b02651"></path><path d="M0 343L82 343L82 253L164 253L164 253L245 253L245 337L327 337L327 181L409 181L409 397L491 397L491 253L573 253L573 253L655 253L655 169L736 169L736 319L818 319L818 295L900 295L900 271L900 215L900 221L818 221L818 281L736 281L736 107L655 107L655 161L573 161L573 179L491 179L491 317L409 317L409 119L327 119L327 215L245 215L245 155L164 155L164 167L82 167L82 311L0 311Z" fill="#d64174"></path><path d="M0 409L82 409L82 313L164 313L164 313L245 313L245 415L327 415L327 241L409 241L409 457L491 457L491 283L573 283L573 373L655 373L655 313L736 313L736 385L818 385L818 367L900 367L900 319L900 269L900 293L818 293L818 317L736 317L736 167L655 167L655 251L573 251L573 251L491 251L491 395L409 395L409 179L327 179L327 335L245 335L245 251L164 251L164 251L82 251L82 341L0 341Z" fill="#f55792"></path><path d="M0 427L82 427L82 331L164 331L164 337L245 337L245 451L327 451L327 301L409 301L409 475L491 475L491 313L573 313L573 427L655 427L655 337L736 337L736 439L818 439L818 385L900 385L900 379L900 317L900 365L818 365L818 383L736 383L736 311L655 311L655 371L573 371L573 281L491 281L491 455L409 455L409 239L327 239L327 413L245 413L245 311L164 311L164 311L82 311L82 407L0 407Z" fill="#f55792"></path><path d="M0 439L82 439L82 379L164 379L164 355L245 355L245 469L327 469L327 349L409 349L409 511L491 511L491 343L573 343L573 463L655 463L655 361L736 361L736 499L818 499L818 421L900 421L900 439L900 377L900 383L818 383L818 437L736 437L736 335L655 335L655 425L573 425L573 311L491 311L491 473L409 473L409 299L327 299L327 449L245 449L245 335L164 335L164 329L82 329L82 425L0 425Z" fill="#d64174"></path><path d="M0 511L82 511L82 505L164 505L164 529L245 529L245 577L327 577L327 577L409 577L409 577L491 577L491 529L573 529L573 553L655 553L655 511L736 511L736 583L818 583L818 541L900 541L900 547L900 437L900 419L818 419L818 497L736 497L736 359L655 359L655 461L573 461L573 341L491 341L491 509L409 509L409 347L327 347L327 467L245 467L245 353L164 353L164 377L82 377L82 437L0 437Z" fill="#b02651"></path><path d="M0 601L82 601L82 601L164 601L164 601L245 601L245 601L327 601L327 601L409 601L409 601L491 601L491 601L573 601L573 601L655 601L655 601L736 601L736 601L818 601L818 601L900 601L900 601L900 545L900 539L818 539L818 581L736 581L736 509L655 509L655 551L573 551L573 527L491 527L491 575L409 575L409 575L327 575L327 575L245 575L245 527L164 527L164 503L82 503L82 509L0 509Z" fill="#8a0532"></path></svg>